<svg width="512" height="512" viewBox="0 0 512 512" xmlns="http://www.w3.org/2000/svg">
  <defs>
    <linearGradient id="bg" x1="0" y1="0" x2="1" y2="1">
      <stop offset="0%" stop-color="#1E3A66"/>
      <stop offset="100%" stop-color="#0F1F38"/>
    </linearGradient>
  </defs>

  <rect width="512" height="512" fill="url(#bg)"/>

  <!-- Cán cân (thu nhỏ + giữ trong vùng an toàn maskable ~80%) -->
  <g stroke="#E9C46A" stroke-width="10" stroke-linecap="round" fill="none">
    <line x1="256" y1="172" x2="256" y2="364"/>
    <line x1="162" y1="212" x2="350" y2="212"/>
    <line x1="162" y1="212" x2="132" y2="278"/>
    <line x1="162" y1="212" x2="192" y2="278"/>
    <line x1="350" y1="212" x2="320" y2="278"/>
    <line x1="350" y1="212" x2="380" y2="278"/>
  </g>

  <path d="M124 278 Q162 320 200 278" stroke="#E9C46A" stroke-width="10" stroke-linecap="round" fill="none"/>
  <path d="M312 278 Q350 320 388 278" stroke="#E9C46A" stroke-width="10" stroke-linecap="round" fill="none"/>

  <circle cx="256" cy="172" r="13" fill="#E9C46A"/>

  <path d="M204 364 L308 364 L326 392 L186 392 Z" fill="#E9C46A"/>
  <rect x="180" y="392" width="152" height="18" rx="7" fill="#E9C46A"/>
</svg>
